<svg width="37" height="39" viewBox="0 0 37 39" fill="none" xmlns="http://www.w3.org/2000/svg">
<path d="M37 23.1563C37 22.1797 36.6315 21.2697 35.9964 20.5985C36.7164 19.7682 37.0833 18.655 36.983 17.4964C36.8026 15.431 35.0374 13.8125 32.9624 13.8125H23.4395C23.9112 12.3029 24.6666 9.53553 24.6666 7.31253C24.6666 3.7879 21.8254 0.812553 20.0416 0.812553C18.4414 0.812553 17.2959 1.76318 17.2481 1.80218C17.0647 1.95658 16.9583 2.19058 16.9583 2.43753V7.94788L12.5168 18.0863L12.3333 18.1854V17.875C12.3333 17.4265 11.9879 17.0625 11.5624 17.0625H3.85414C1.72823 17.0625 0 18.8842 0 21.125V34.125C0 36.3659 1.72823 38.1875 3.85414 38.1875H8.47914C10.1457 38.1875 11.5702 37.0663 12.1067 35.5014C13.3894 36.1969 15.116 36.5625 16.1875 36.5625H30.3385C32.0174 36.5625 33.4866 35.3698 33.8319 33.7253C34.0091 32.877 33.9059 32.0239 33.5544 31.2829C34.6921 30.68 35.4584 29.4402 35.4584 28.0313C35.4584 27.456 35.3335 26.9052 35.0976 26.4079C36.2354 25.8034 37 24.5652 37 23.1563ZM33.7486 25.1615C33.4511 25.1989 33.1998 25.4117 33.1042 25.7124C33.0102 26.013 33.0888 26.3429 33.3077 26.5606C33.6993 26.949 33.9167 27.4723 33.9167 28.0313C33.9167 29.0566 33.1813 29.9179 32.2086 30.0365C31.9111 30.0739 31.6597 30.2867 31.5642 30.5874C31.4702 30.888 31.5488 31.2179 31.7677 31.4356C32.2749 31.9394 32.4784 32.6462 32.3258 33.3743C32.1362 34.281 31.3006 34.9376 30.3386 34.9376H16.1875C14.9356 34.9376 12.8359 34.3184 12.1082 33.5498C11.8878 33.3191 11.5548 33.2508 11.268 33.3743C10.9798 33.4994 10.7916 33.7968 10.7916 34.125C10.7916 35.4689 9.75412 36.5625 8.47914 36.5625H3.85414C2.57916 36.5625 1.54164 35.4689 1.54164 34.125V21.125C1.54164 19.7811 2.57916 18.6875 3.85414 18.6875H10.7916V19.5C10.7916 19.7812 10.9304 20.0428 11.1585 20.1923C11.3836 20.3353 11.6673 20.3499 11.9078 20.2264L13.4494 19.4139C13.6052 19.3326 13.73 19.1961 13.804 19.0288L18.429 8.46623C18.4753 8.35898 18.4999 8.24198 18.4999 8.12498V2.87788C18.8206 2.69103 19.3772 2.43753 20.0416 2.43753C20.8865 2.43753 23.125 4.65078 23.125 7.31253C23.125 10.1726 21.6481 14.2951 21.6342 14.3358C21.5448 14.5844 21.5756 14.8656 21.719 15.0866C21.8639 15.3059 22.1014 15.4376 22.3541 15.4376H32.9624C34.2481 15.4376 35.3396 16.4077 35.4475 17.6459C35.5293 18.5722 35.1068 19.453 34.3499 19.9453C34.114 20.0981 33.9737 20.3743 33.9845 20.6684C33.9953 20.9625 34.1556 21.2258 34.4023 21.3607C35.0544 21.7101 35.4583 22.3991 35.4583 23.1563C35.4584 24.1816 34.723 25.0429 33.7486 25.1615Z" fill="black"/>
</svg>
