<svg width="38" height="35" viewBox="0 0 38 35" fill="none" xmlns="http://www.w3.org/2000/svg">
<path d="M36.9699 16.5143C37.6207 15.912 37.9991 15.0954 37.9991 14.2189C37.9991 12.9546 37.2138 11.8433 36.0453 11.3008C36.2876 10.8546 36.4158 10.3602 36.4158 9.844C36.4158 8.57965 35.6289 7.46699 34.4604 6.92594C34.8214 6.26096 34.9275 5.49535 34.7454 4.73555C34.3908 3.25828 32.8819 2.18793 31.1577 2.18793H16.6246C15.5242 2.18793 13.7509 2.51605 12.4337 3.14022C11.8827 1.73588 10.4197 0.729652 8.70818 0.729652H3.95829C1.7749 0.729652 0 2.36436 0 4.37538V16.0418C0 18.0528 1.7749 19.6875 3.95822 19.6875H11.8747C12.3117 19.6875 12.6664 19.3608 12.6664 18.9583V18.6798L12.8548 18.7673L17.4163 27.8671V32.8121C17.4163 33.0338 17.5255 33.2438 17.7123 33.3823C17.763 33.4173 18.9394 34.2704 20.5828 34.2704C22.4147 34.2704 25.3327 31.6003 25.3327 28.4372C25.3327 26.4423 24.5569 23.9588 24.0724 22.6041H33.8525C35.9836 22.6041 37.7964 21.1516 37.9833 19.2981C38.0862 18.2584 37.7094 17.2595 36.9699 16.5143ZM35.2774 17.102C36.0548 17.5438 36.4886 18.3342 36.4047 19.1655C36.2939 20.2753 35.1729 21.1459 33.8525 21.1459H22.9578C22.6981 21.1459 22.4543 21.264 22.3055 21.4609C22.1582 21.6592 22.125 21.9115 22.2184 22.1346C22.2327 22.171 23.7494 25.8708 23.7494 28.4374C23.7494 30.8261 21.4505 32.8123 20.5828 32.8123C19.9004 32.8123 19.3273 32.5834 18.9996 32.4171V27.7083C18.9996 27.6033 18.9742 27.4983 18.9251 27.402L14.1752 17.9231C14.1008 17.7743 13.9725 17.6518 13.811 17.5775L12.2278 16.8483C11.9823 16.7345 11.6895 16.7491 11.4583 16.8789C11.2255 17.0131 11.083 17.2478 11.083 17.5001V18.2293H3.95822C2.64881 18.2293 1.58327 17.2479 1.58327 16.0419V4.37538C1.58327 3.16934 2.64881 2.18793 3.95822 2.18793H8.70811C10.0175 2.18793 11.083 3.16934 11.083 4.37538C11.083 4.66993 11.2762 4.9368 11.5723 5.04911C11.8668 5.15992 12.2072 5.09867 12.4352 4.89162C13.1825 4.20182 15.339 3.64621 16.6246 3.64621H31.1577C32.1457 3.64621 33.0039 4.23538 33.1986 5.05198C33.3554 5.70384 33.1464 6.33677 32.6254 6.79025C32.4006 6.98418 32.3182 7.28024 32.4164 7.55149C32.5146 7.82129 32.7727 8.01379 33.0782 8.04585C34.0773 8.15085 34.8325 8.92377 34.8325 9.84393C34.8325 10.3456 34.6092 10.8152 34.2087 11.1651C33.9839 11.3591 33.9015 11.6551 33.9997 11.9264C34.0979 12.1962 34.3559 12.3887 34.6615 12.4207C35.6605 12.5257 36.4158 13.2987 36.4158 14.2188C36.4158 14.8984 36.001 15.5167 35.3312 15.8317C35.0779 15.9528 34.9148 16.189 34.9022 16.453C34.8911 16.7155 35.0352 16.9634 35.2774 17.102Z" fill="black"/>
</svg>
